<?xml version="1.0" encoding="UTF-8" standalone="no"?>
<!-- Created with Inkscape (http://www.inkscape.org/) -->

<svg
   version="1.1"
   id="svg1"
   width="378.84201"
   height="370.62512"
   viewBox="0 0 378.84201 370.62512"
   xmlns="http://www.w3.org/2000/svg"
   xmlns:svg="http://www.w3.org/2000/svg">
  <defs
     id="defs1">
    <clipPath
       clipPathUnits="userSpaceOnUse"
       id="clipPath5">
      <path
         d="M 50.996,27.531 H 281.101 V 257.636 H 50.996 Z"
         id="path5" />
    </clipPath>
    <clipPath
       clipPathUnits="userSpaceOnUse"
       id="clipPath7">
      <path
         d="M 50.996,27.531 H 281.101 V 257.636 H 50.996 Z"
         id="path7" />
    </clipPath>
    <clipPath
       clipPathUnits="userSpaceOnUse"
       id="clipPath9">
      <path
         d="M 50.996,27.531 H 281.101 V 257.636 H 50.996 Z"
         id="path9" />
    </clipPath>
    <clipPath
       clipPathUnits="userSpaceOnUse"
       id="clipPath11">
      <path
         d="M 50.996,27.531 H 281.101 V 257.636 H 50.996 Z"
         id="path11" />
    </clipPath>
    <clipPath
       clipPathUnits="userSpaceOnUse"
       id="clipPath13">
      <path
         d="M 50.996,27.531 H 281.101 V 257.636 H 50.996 Z"
         id="path13" />
    </clipPath>
    <clipPath
       clipPathUnits="userSpaceOnUse"
       id="clipPath15">
      <path
         d="M 50.996,27.531 H 281.101 V 257.636 H 50.996 Z"
         id="path15" />
    </clipPath>
    <clipPath
       clipPathUnits="userSpaceOnUse"
       id="clipPath17">
      <path
         d="M 50.996,27.531 H 281.101 V 257.636 H 50.996 Z"
         id="path17" />
    </clipPath>
    <clipPath
       clipPathUnits="userSpaceOnUse"
       id="clipPath19">
      <path
         d="M 50.996,27.531 H 281.101 V 257.636 H 50.996 Z"
         id="path19" />
    </clipPath>
    <clipPath
       clipPathUnits="userSpaceOnUse"
       id="clipPath21">
      <path
         d="M 50.996,27.531 H 281.101 V 257.636 H 50.996 Z"
         id="path21" />
    </clipPath>
    <clipPath
       clipPathUnits="userSpaceOnUse"
       id="clipPath23">
      <path
         d="M 50.996,27.531 H 281.101 V 257.636 H 50.996 Z"
         id="path23" />
    </clipPath>
    <clipPath
       clipPathUnits="userSpaceOnUse"
       id="clipPath25">
      <path
         d="M 50.996,27.531 H 281.101 V 257.636 H 50.996 Z"
         id="path25" />
    </clipPath>
    <clipPath
       clipPathUnits="userSpaceOnUse"
       id="clipPath27">
      <path
         d="M 50.996,27.531 H 281.101 V 257.636 H 50.996 Z"
         id="path27" />
    </clipPath>
    <clipPath
       clipPathUnits="userSpaceOnUse"
       id="clipPath29">
      <path
         d="M 50.996,27.531 H 281.101 V 257.636 H 50.996 Z"
         id="path29" />
    </clipPath>
    <clipPath
       clipPathUnits="userSpaceOnUse"
       id="clipPath31">
      <path
         d="M 50.996,27.531 H 281.101 V 257.636 H 50.996 Z"
         id="path31" />
    </clipPath>
    <clipPath
       clipPathUnits="userSpaceOnUse"
       id="clipPath33">
      <path
         d="M 50.996,27.531 H 281.101 V 257.636 H 50.996 Z"
         id="path33" />
    </clipPath>
    <clipPath
       clipPathUnits="userSpaceOnUse"
       id="clipPath35">
      <path
         d="M 50.996,27.531 H 281.101 V 257.636 H 50.996 Z"
         id="path35" />
    </clipPath>
    <clipPath
       clipPathUnits="userSpaceOnUse"
       id="clipPath37">
      <path
         d="M 50.996,27.531 H 281.101 V 257.636 H 50.996 Z"
         id="path37" />
    </clipPath>
    <clipPath
       clipPathUnits="userSpaceOnUse"
       id="clipPath39">
      <path
         d="M 50.996,27.531 H 281.101 V 257.636 H 50.996 Z"
         id="path39" />
    </clipPath>
    <clipPath
       clipPathUnits="userSpaceOnUse"
       id="clipPath41">
      <path
         d="M 50.996,27.531 H 281.101 V 257.636 H 50.996 Z"
         id="path41" />
    </clipPath>
    <clipPath
       clipPathUnits="userSpaceOnUse"
       id="clipPath43">
      <path
         d="M 50.996,27.531 H 281.101 V 257.636 H 50.996 Z"
         id="path43" />
    </clipPath>
    <clipPath
       clipPathUnits="userSpaceOnUse"
       id="clipPath45">
      <path
         d="M 50.996,27.531 H 281.101 V 257.636 H 50.996 Z"
         id="path45" />
    </clipPath>
    <clipPath
       clipPathUnits="userSpaceOnUse"
       id="clipPath47">
      <path
         d="M 50.996,27.531 H 281.101 V 257.636 H 50.996 Z"
         id="path47" />
    </clipPath>
    <clipPath
       clipPathUnits="userSpaceOnUse"
       id="clipPath49">
      <path
         d="M 50.996,27.531 H 281.101 V 257.636 H 50.996 Z"
         id="path49" />
    </clipPath>
    <clipPath
       clipPathUnits="userSpaceOnUse"
       id="clipPath51">
      <path
         d="M 50.996,27.531 H 281.101 V 257.636 H 50.996 Z"
         id="path51" />
    </clipPath>
    <clipPath
       clipPathUnits="userSpaceOnUse"
       id="clipPath53">
      <path
         d="M 50.996,27.531 H 281.101 V 257.636 H 50.996 Z"
         id="path53" />
    </clipPath>
    <clipPath
       clipPathUnits="userSpaceOnUse"
       id="clipPath55">
      <path
         d="M 50.996,27.531 H 281.101 V 257.636 H 50.996 Z"
         id="path55" />
    </clipPath>
    <clipPath
       clipPathUnits="userSpaceOnUse"
       id="clipPath57">
      <path
         d="M 50.996,27.531 H 281.101 V 257.636 H 50.996 Z"
         id="path57" />
    </clipPath>
    <clipPath
       clipPathUnits="userSpaceOnUse"
       id="clipPath59">
      <path
         d="M 50.996,27.531 H 281.101 V 257.636 H 50.996 Z"
         id="path59" />
    </clipPath>
    <clipPath
       clipPathUnits="userSpaceOnUse"
       id="clipPath61">
      <path
         d="M 50.996,27.531 H 281.101 V 257.636 H 50.996 Z"
         id="path61" />
    </clipPath>
    <clipPath
       clipPathUnits="userSpaceOnUse"
       id="clipPath63">
      <path
         d="M 50.996,27.531 H 281.101 V 257.636 H 50.996 Z"
         id="path63" />
    </clipPath>
    <clipPath
       clipPathUnits="userSpaceOnUse"
       id="clipPath65">
      <path
         d="M 50.996,27.531 H 281.101 V 257.636 H 50.996 Z"
         id="path65" />
    </clipPath>
    <clipPath
       clipPathUnits="userSpaceOnUse"
       id="clipPath67">
      <path
         d="M 50.996,27.531 H 281.101 V 257.636 H 50.996 Z"
         id="path67" />
    </clipPath>
    <clipPath
       clipPathUnits="userSpaceOnUse"
       id="clipPath69">
      <path
         d="M 50.996,27.531 H 281.101 V 257.636 H 50.996 Z"
         id="path69" />
    </clipPath>
    <clipPath
       clipPathUnits="userSpaceOnUse"
       id="clipPath71">
      <path
         d="M 50.996,27.531 H 281.101 V 257.636 H 50.996 Z"
         id="path71" />
    </clipPath>
    <clipPath
       clipPathUnits="userSpaceOnUse"
       id="clipPath73">
      <path
         d="M 50.996,27.531 H 281.101 V 257.636 H 50.996 Z"
         id="path73" />
    </clipPath>
    <clipPath
       clipPathUnits="userSpaceOnUse"
       id="clipPath75">
      <path
         d="M 50.996,27.531 H 281.101 V 257.636 H 50.996 Z"
         id="path75" />
    </clipPath>
    <clipPath
       clipPathUnits="userSpaceOnUse"
       id="clipPath77">
      <path
         d="M 50.996,27.531 H 281.101 V 257.636 H 50.996 Z"
         id="path77" />
    </clipPath>
    <clipPath
       clipPathUnits="userSpaceOnUse"
       id="clipPath79">
      <path
         d="M 50.996,27.531 H 281.101 V 257.636 H 50.996 Z"
         id="path79" />
    </clipPath>
    <clipPath
       clipPathUnits="userSpaceOnUse"
       id="clipPath81">
      <path
         d="M 50.996,27.531 H 281.101 V 257.636 H 50.996 Z"
         id="path81" />
    </clipPath>
    <clipPath
       clipPathUnits="userSpaceOnUse"
       id="clipPath83">
      <path
         d="M 50.996,27.531 H 281.101 V 257.636 H 50.996 Z"
         id="path83" />
    </clipPath>
    <clipPath
       clipPathUnits="userSpaceOnUse"
       id="clipPath85">
      <path
         d="M 50.996,27.531 H 281.101 V 257.636 H 50.996 Z"
         id="path85" />
    </clipPath>
    <clipPath
       clipPathUnits="userSpaceOnUse"
       id="clipPath87">
      <path
         d="M 50.996,27.531 H 281.101 V 257.636 H 50.996 Z"
         id="path87" />
    </clipPath>
    <clipPath
       clipPathUnits="userSpaceOnUse"
       id="clipPath89">
      <path
         d="M 50.996,27.531 H 281.101 V 257.636 H 50.996 Z"
         id="path89" />
    </clipPath>
    <clipPath
       clipPathUnits="userSpaceOnUse"
       id="clipPath91">
      <path
         d="M 50.996,27.531 H 281.101 V 257.636 H 50.996 Z"
         id="path91" />
    </clipPath>
    <clipPath
       clipPathUnits="userSpaceOnUse"
       id="clipPath93">
      <path
         d="M 50.996,27.531 H 281.101 V 257.636 H 50.996 Z"
         id="path93" />
    </clipPath>
    <clipPath
       clipPathUnits="userSpaceOnUse"
       id="clipPath95">
      <path
         d="M 50.996,27.531 H 281.101 V 257.636 H 50.996 Z"
         id="path95" />
    </clipPath>
    <clipPath
       clipPathUnits="userSpaceOnUse"
       id="clipPath97">
      <path
         d="M 50.996,27.531 H 281.101 V 257.636 H 50.996 Z"
         id="path97" />
    </clipPath>
    <clipPath
       clipPathUnits="userSpaceOnUse"
       id="clipPath99">
      <path
         d="M 50.996,27.531 H 281.101 V 257.636 H 50.996 Z"
         id="path99" />
    </clipPath>
    <clipPath
       clipPathUnits="userSpaceOnUse"
       id="clipPath101">
      <path
         d="M 50.996,27.531 H 281.101 V 257.636 H 50.996 Z"
         id="path101" />
    </clipPath>
    <clipPath
       clipPathUnits="userSpaceOnUse"
       id="clipPath103">
      <path
         d="M 50.996,27.531 H 281.101 V 257.636 H 50.996 Z"
         id="path103" />
    </clipPath>
    <clipPath
       clipPathUnits="userSpaceOnUse"
       id="clipPath105">
      <path
         d="M 50.996,27.531 H 281.101 V 257.636 H 50.996 Z"
         id="path105" />
    </clipPath>
    <clipPath
       clipPathUnits="userSpaceOnUse"
       id="clipPath107">
      <path
         d="M 50.996,27.531 H 281.101 V 257.636 H 50.996 Z"
         id="path107" />
    </clipPath>
    <clipPath
       clipPathUnits="userSpaceOnUse"
       id="clipPath109">
      <path
         d="m 50.996,91 h 230.105 v 1 H 50.996 Z"
         id="path109" />
    </clipPath>
    <clipPath
       clipPathUnits="userSpaceOnUse"
       id="clipPath111">
      <path
         d="m 217,27.531 h 1 v 230.105 h -1 z"
         id="path111" />
    </clipPath>
    <clipPath
       clipPathUnits="userSpaceOnUse"
       id="clipPath124">
      <path
         d="M 50.996,27.531 H 281.101 V 257.636 H 50.996 Z"
         id="path124" />
    </clipPath>
  </defs>
  <g
     id="g1"
     transform="translate(-1.2610018,-25)">
    <path
       id="path1"
       d="M 1.2610018,25 H 380.10301 V 395.62511 H 1.2610018 Z"
       style="fill:#ffffff;fill-opacity:1;fill-rule:nonzero;stroke:none;stroke-width:0.555747" />
    <path
       id="path4"
       d="M 50.996,27.531 H 281.101 V 257.636 H 50.996 Z"
       style="fill:#ffffff;fill-opacity:1;fill-rule:nonzero;stroke:none"
       transform="scale(1.3333333)"
       clip-path="url(#clipPath5)" />
    <path
       id="path6"
       d="m 227.102,88.254 c 0,3.32 -4.977,3.32 -4.977,0 0,-3.316 4.977,-3.316 4.977,0"
       style="fill:#000000;fill-opacity:1;fill-rule:nonzero;stroke:#000000;stroke-width:0.708661;stroke-linecap:round;stroke-linejoin:round;stroke-miterlimit:10;stroke-dasharray:none;stroke-opacity:1"
       transform="scale(1.3333333)"
       clip-path="url(#clipPath7)" />
    <path
       id="path8"
       d="m 219.207,92.875 c 0,3.32 -4.977,3.32 -4.977,0 0,-3.316 4.977,-3.316 4.977,0"
       style="fill:#000000;fill-opacity:1;fill-rule:nonzero;stroke:#000000;stroke-width:0.708661;stroke-linecap:round;stroke-linejoin:round;stroke-miterlimit:10;stroke-dasharray:none;stroke-opacity:1"
       transform="scale(1.3333333)"
       clip-path="url(#clipPath9)" />
    <path
       id="path10"
       d="m 63.945,102.895 c 0,3.316 -4.976,3.316 -4.976,0 0,-3.321 4.976,-3.321 4.976,0"
       style="fill:#000000;fill-opacity:1;fill-rule:nonzero;stroke:#000000;stroke-width:0.708661;stroke-linecap:round;stroke-linejoin:round;stroke-miterlimit:10;stroke-dasharray:none;stroke-opacity:1"
       transform="scale(1.3333333)"
       clip-path="url(#clipPath11)" />
    <path
       id="path12"
       d="m 225.418,93.293 c 0,3.316 -4.977,3.316 -4.977,0 0,-3.316 4.977,-3.316 4.977,0"
       style="fill:#ee82ee;fill-opacity:1;fill-rule:nonzero;stroke:#ee82ee;stroke-width:0.708661;stroke-linecap:round;stroke-linejoin:round;stroke-miterlimit:10;stroke-dasharray:none;stroke-opacity:1"
       transform="scale(1.3333333)"
       clip-path="url(#clipPath13)" />
    <path
       id="path14"
       d="m 219.336,90.211 c 0,3.32 -4.977,3.32 -4.977,0 0,-3.316 4.977,-3.316 4.977,0"
       style="fill:#ee82ee;fill-opacity:1;fill-rule:nonzero;stroke:#ee82ee;stroke-width:0.708661;stroke-linecap:round;stroke-linejoin:round;stroke-miterlimit:10;stroke-dasharray:none;stroke-opacity:1"
       transform="scale(1.3333333)"
       clip-path="url(#clipPath15)" />
    <path
       id="path16"
       d="m 197.574,96.203 c 0,3.32 -4.976,3.32 -4.976,0 0,-3.316 4.976,-3.316 4.976,0"
       style="fill:#000000;fill-opacity:1;fill-rule:nonzero;stroke:#000000;stroke-width:0.708661;stroke-linecap:round;stroke-linejoin:round;stroke-miterlimit:10;stroke-dasharray:none;stroke-opacity:1"
       transform="scale(1.3333333)"
       clip-path="url(#clipPath17)" />
    <path
       id="path18"
       d="m 224.141,101.992 c 0,3.317 -4.977,3.317 -4.977,0 0,-3.32 4.977,-3.32 4.977,0"
       style="fill:#ee82ee;fill-opacity:1;fill-rule:nonzero;stroke:#ee82ee;stroke-width:0.708661;stroke-linecap:round;stroke-linejoin:round;stroke-miterlimit:10;stroke-dasharray:none;stroke-opacity:1"
       transform="scale(1.3333333)"
       clip-path="url(#clipPath19)" />
    <path
       id="path20"
       d="m 222.668,79.305 c 0,3.32 -4.977,3.32 -4.977,0 0,-3.317 4.977,-3.317 4.977,0"
       style="fill:#000000;fill-opacity:1;fill-rule:nonzero;stroke:#000000;stroke-width:0.708661;stroke-linecap:round;stroke-linejoin:round;stroke-miterlimit:10;stroke-dasharray:none;stroke-opacity:1"
       transform="scale(1.3333333)"
       clip-path="url(#clipPath21)" />
    <path
       id="path22"
       d="m 206.695,96.23 c 0,3.317 -4.976,3.317 -4.976,0 0,-3.32 4.976,-3.32 4.976,0"
       style="fill:#000000;fill-opacity:1;fill-rule:nonzero;stroke:#000000;stroke-width:0.708661;stroke-linecap:round;stroke-linejoin:round;stroke-miterlimit:10;stroke-dasharray:none;stroke-opacity:1"
       transform="scale(1.3333333)"
       clip-path="url(#clipPath23)" />
    <path
       id="path24"
       d="m 182.527,93.562 c 0,3.317 -4.976,3.317 -4.976,0 0,-3.316 4.976,-3.316 4.976,0"
       style="fill:#000000;fill-opacity:1;fill-rule:nonzero;stroke:#000000;stroke-width:0.708661;stroke-linecap:round;stroke-linejoin:round;stroke-miterlimit:10;stroke-dasharray:none;stroke-opacity:1"
       transform="scale(1.3333333)"
       clip-path="url(#clipPath25)" />
    <path
       id="path26"
       d="m 221.273,51.949 c 0,3.321 -4.976,3.321 -4.976,0 0,-3.316 4.976,-3.316 4.976,0"
       style="fill:#000000;fill-opacity:1;fill-rule:nonzero;stroke:#000000;stroke-width:0.708661;stroke-linecap:round;stroke-linejoin:round;stroke-miterlimit:10;stroke-dasharray:none;stroke-opacity:1"
       transform="scale(1.3333333)"
       clip-path="url(#clipPath27)" />
    <path
       id="path28"
       d="m 220.523,91.352 c 0,3.316 -4.976,3.316 -4.976,0 0,-3.321 4.976,-3.321 4.976,0"
       style="fill:#ee82ee;fill-opacity:1;fill-rule:nonzero;stroke:#ee82ee;stroke-width:0.708661;stroke-linecap:round;stroke-linejoin:round;stroke-miterlimit:10;stroke-dasharray:none;stroke-opacity:1"
       transform="scale(1.3333333)"
       clip-path="url(#clipPath29)" />
    <path
       id="path30"
       d="m 217.488,91.027 c 0,3.317 -4.976,3.317 -4.976,0 0,-3.32 4.976,-3.32 4.976,0"
       style="fill:#ee82ee;fill-opacity:1;fill-rule:nonzero;stroke:#ee82ee;stroke-width:0.708661;stroke-linecap:round;stroke-linejoin:round;stroke-miterlimit:10;stroke-dasharray:none;stroke-opacity:1"
       transform="scale(1.3333333)"
       clip-path="url(#clipPath31)" />
    <path
       id="path32"
       d="m 215.734,90.637 c 0,3.32 -4.976,3.32 -4.976,0 0,-3.317 4.976,-3.317 4.976,0"
       style="fill:#ee82ee;fill-opacity:1;fill-rule:nonzero;stroke:#ee82ee;stroke-width:0.708661;stroke-linecap:round;stroke-linejoin:round;stroke-miterlimit:10;stroke-dasharray:none;stroke-opacity:1"
       transform="scale(1.3333333)"
       clip-path="url(#clipPath33)" />
    <path
       id="path34"
       d="m 140.105,100.566 c 0,3.321 -4.976,3.321 -4.976,0 0,-3.316 4.976,-3.316 4.976,0"
       style="fill:#000000;fill-opacity:1;fill-rule:nonzero;stroke:#000000;stroke-width:0.708661;stroke-linecap:round;stroke-linejoin:round;stroke-miterlimit:10;stroke-dasharray:none;stroke-opacity:1"
       transform="scale(1.3333333)"
       clip-path="url(#clipPath35)" />
    <path
       id="path36"
       d="m 170.02,104.723 c 0,3.316 -4.977,3.316 -4.977,0 0,-3.321 4.977,-3.321 4.977,0"
       style="fill:#000000;fill-opacity:1;fill-rule:nonzero;stroke:#000000;stroke-width:0.708661;stroke-linecap:round;stroke-linejoin:round;stroke-miterlimit:10;stroke-dasharray:none;stroke-opacity:1"
       transform="scale(1.3333333)"
       clip-path="url(#clipPath37)" />
    <path
       id="path38"
       d="m 227.297,84.738 c 0,3.317 -4.977,3.317 -4.977,0 0,-3.316 4.977,-3.316 4.977,0"
       style="fill:#000000;fill-opacity:1;fill-rule:nonzero;stroke:#000000;stroke-width:0.708661;stroke-linecap:round;stroke-linejoin:round;stroke-miterlimit:10;stroke-dasharray:none;stroke-opacity:1"
       transform="scale(1.3333333)"
       clip-path="url(#clipPath39)" />
    <path
       id="path40"
       d="m 216.367,91.039 c 0,3.316 -4.976,3.316 -4.976,0 0,-3.316 4.976,-3.316 4.976,0"
       style="fill:#ee82ee;fill-opacity:1;fill-rule:nonzero;stroke:#ee82ee;stroke-width:0.708661;stroke-linecap:round;stroke-linejoin:round;stroke-miterlimit:10;stroke-dasharray:none;stroke-opacity:1"
       transform="scale(1.3333333)"
       clip-path="url(#clipPath41)" />
    <path
       id="path42"
       d="m 219.344,89.906 c 0,3.317 -4.977,3.317 -4.977,0 0,-3.316 4.977,-3.316 4.977,0"
       style="fill:#ee82ee;fill-opacity:1;fill-rule:nonzero;stroke:#ee82ee;stroke-width:0.708661;stroke-linecap:round;stroke-linejoin:round;stroke-miterlimit:10;stroke-dasharray:none;stroke-opacity:1"
       transform="scale(1.3333333)"
       clip-path="url(#clipPath43)" />
    <path
       id="path44"
       d="m 215.902,86.18 c 0,3.316 -4.976,3.316 -4.976,0 0,-3.321 4.976,-3.321 4.976,0"
       style="fill:#ee82ee;fill-opacity:1;fill-rule:nonzero;stroke:#ee82ee;stroke-width:0.708661;stroke-linecap:round;stroke-linejoin:round;stroke-miterlimit:10;stroke-dasharray:none;stroke-opacity:1"
       transform="scale(1.3333333)"
       clip-path="url(#clipPath45)" />
    <path
       id="path46"
       d="m 273.129,89.258 c 0,3.316 -4.977,3.316 -4.977,0 0,-3.317 4.977,-3.317 4.977,0"
       style="fill:#000000;fill-opacity:1;fill-rule:nonzero;stroke:#000000;stroke-width:0.708661;stroke-linecap:round;stroke-linejoin:round;stroke-miterlimit:10;stroke-dasharray:none;stroke-opacity:1"
       transform="scale(1.3333333)"
       clip-path="url(#clipPath47)" />
    <path
       id="path48"
       d="m 218.121,87.617 c 0,3.317 -4.976,3.317 -4.976,0 0,-3.316 4.976,-3.316 4.976,0"
       style="fill:#ee82ee;fill-opacity:1;fill-rule:nonzero;stroke:#ee82ee;stroke-width:0.708661;stroke-linecap:round;stroke-linejoin:round;stroke-miterlimit:10;stroke-dasharray:none;stroke-opacity:1"
       transform="scale(1.3333333)"
       clip-path="url(#clipPath49)" />
    <path
       id="path50"
       d="m 191.109,93.148 c 0,3.317 -4.976,3.317 -4.976,0 0,-3.32 4.976,-3.32 4.976,0"
       style="fill:#000000;fill-opacity:1;fill-rule:nonzero;stroke:#000000;stroke-width:0.708661;stroke-linecap:round;stroke-linejoin:round;stroke-miterlimit:10;stroke-dasharray:none;stroke-opacity:1"
       transform="scale(1.3333333)"
       clip-path="url(#clipPath51)" />
    <path
       id="path52"
       d="m 218.391,91.777 c 0,3.317 -4.977,3.317 -4.977,0 0,-3.32 4.977,-3.32 4.977,0"
       style="fill:#000000;fill-opacity:1;fill-rule:nonzero;stroke:#000000;stroke-width:0.708661;stroke-linecap:round;stroke-linejoin:round;stroke-miterlimit:10;stroke-dasharray:none;stroke-opacity:1"
       transform="scale(1.3333333)"
       clip-path="url(#clipPath53)" />
    <path
       id="path54"
       d="m 108.777,100.203 c 0,3.317 -4.976,3.317 -4.976,0 0,-3.32 4.976,-3.32 4.976,0"
       style="fill:#000000;fill-opacity:1;fill-rule:nonzero;stroke:#000000;stroke-width:0.708661;stroke-linecap:round;stroke-linejoin:round;stroke-miterlimit:10;stroke-dasharray:none;stroke-opacity:1"
       transform="scale(1.3333333)"
       clip-path="url(#clipPath55)" />
    <path
       id="path56"
       d="m 210.672,90.941 c 0,3.321 -4.977,3.321 -4.977,0 0,-3.316 4.977,-3.316 4.977,0"
       style="fill:#ee82ee;fill-opacity:1;fill-rule:nonzero;stroke:#ee82ee;stroke-width:0.708661;stroke-linecap:round;stroke-linejoin:round;stroke-miterlimit:10;stroke-dasharray:none;stroke-opacity:1"
       transform="scale(1.3333333)"
       clip-path="url(#clipPath57)" />
    <path
       id="path58"
       d="m 109.469,95.754 c 0,3.316 -4.977,3.316 -4.977,0 0,-3.316 4.977,-3.316 4.977,0"
       style="fill:#000000;fill-opacity:1;fill-rule:nonzero;stroke:#000000;stroke-width:0.708661;stroke-linecap:round;stroke-linejoin:round;stroke-miterlimit:10;stroke-dasharray:none;stroke-opacity:1"
       transform="scale(1.3333333)"
       clip-path="url(#clipPath59)" />
    <path
       id="path60"
       d="m 186.402,99.289 c 0,3.316 -4.976,3.316 -4.976,0 0,-3.32 4.976,-3.32 4.976,0"
       style="fill:#000000;fill-opacity:1;fill-rule:nonzero;stroke:#000000;stroke-width:0.708661;stroke-linecap:round;stroke-linejoin:round;stroke-miterlimit:10;stroke-dasharray:none;stroke-opacity:1"
       transform="scale(1.3333333)"
       clip-path="url(#clipPath61)" />
    <path
       id="path62"
       d="m 231.973,54.746 c 0,3.316 -4.977,3.316 -4.977,0 0,-3.32 4.977,-3.32 4.977,0"
       style="fill:#000000;fill-opacity:1;fill-rule:nonzero;stroke:#000000;stroke-width:0.708661;stroke-linecap:round;stroke-linejoin:round;stroke-miterlimit:10;stroke-dasharray:none;stroke-opacity:1"
       transform="scale(1.3333333)"
       clip-path="url(#clipPath63)" />
    <path
       id="path64"
       d="m 215.391,97.555 c 0,3.32 -4.981,3.32 -4.981,0 0,-3.317 4.981,-3.317 4.981,0"
       style="fill:#000000;fill-opacity:1;fill-rule:nonzero;stroke:#000000;stroke-width:0.708661;stroke-linecap:round;stroke-linejoin:round;stroke-miterlimit:10;stroke-dasharray:none;stroke-opacity:1"
       transform="scale(1.3333333)"
       clip-path="url(#clipPath65)" />
    <path
       id="path66"
       d="m 217.348,84.859 c 0,3.321 -4.977,3.321 -4.977,0 0,-3.316 4.977,-3.316 4.977,0"
       style="fill:#ee82ee;fill-opacity:1;fill-rule:nonzero;stroke:#ee82ee;stroke-width:0.708661;stroke-linecap:round;stroke-linejoin:round;stroke-miterlimit:10;stroke-dasharray:none;stroke-opacity:1"
       transform="scale(1.3333333)"
       clip-path="url(#clipPath67)" />
    <path
       id="path68"
       d="m 218.605,92.922 c 0,3.32 -4.976,3.32 -4.976,0 0,-3.317 4.976,-3.317 4.976,0"
       style="fill:#000000;fill-opacity:1;fill-rule:nonzero;stroke:#000000;stroke-width:0.708661;stroke-linecap:round;stroke-linejoin:round;stroke-miterlimit:10;stroke-dasharray:none;stroke-opacity:1"
       transform="scale(1.3333333)"
       clip-path="url(#clipPath69)" />
    <path
       id="path70"
       d="m 212.191,63.742 c 0,3.317 -4.976,3.317 -4.976,0 0,-3.316 4.976,-3.316 4.976,0"
       style="fill:#ee82ee;fill-opacity:1;fill-rule:nonzero;stroke:#ee82ee;stroke-width:0.708661;stroke-linecap:round;stroke-linejoin:round;stroke-miterlimit:10;stroke-dasharray:none;stroke-opacity:1"
       transform="scale(1.3333333)"
       clip-path="url(#clipPath71)" />
    <path
       id="path72"
       d="m 217.629,90.766 c 0,3.316 -4.977,3.316 -4.977,0 0,-3.317 4.977,-3.317 4.977,0"
       style="fill:#ee82ee;fill-opacity:1;fill-rule:nonzero;stroke:#ee82ee;stroke-width:0.708661;stroke-linecap:round;stroke-linejoin:round;stroke-miterlimit:10;stroke-dasharray:none;stroke-opacity:1"
       transform="scale(1.3333333)"
       clip-path="url(#clipPath73)" />
    <path
       id="path74"
       d="m 210.656,91.309 c 0,3.32 -4.976,3.32 -4.976,0 0,-3.317 4.976,-3.317 4.976,0"
       style="fill:#000000;fill-opacity:1;fill-rule:nonzero;stroke:#000000;stroke-width:0.708661;stroke-linecap:round;stroke-linejoin:round;stroke-miterlimit:10;stroke-dasharray:none;stroke-opacity:1"
       transform="scale(1.3333333)"
       clip-path="url(#clipPath75)" />
    <path
       id="path76"
       d="m 223.043,89.02 c 0,3.316 -4.977,3.316 -4.977,0 0,-3.317 4.977,-3.317 4.977,0"
       style="fill:#000000;fill-opacity:1;fill-rule:nonzero;stroke:#000000;stroke-width:0.708661;stroke-linecap:round;stroke-linejoin:round;stroke-miterlimit:10;stroke-dasharray:none;stroke-opacity:1"
       transform="scale(1.3333333)"
       clip-path="url(#clipPath77)" />
    <path
       id="path78"
       d="m 226.277,93.441 c 0,3.317 -4.976,3.317 -4.976,0 0,-3.316 4.976,-3.316 4.976,0"
       style="fill:#ee82ee;fill-opacity:1;fill-rule:nonzero;stroke:#ee82ee;stroke-width:0.708661;stroke-linecap:round;stroke-linejoin:round;stroke-miterlimit:10;stroke-dasharray:none;stroke-opacity:1"
       transform="scale(1.3333333)"
       clip-path="url(#clipPath79)" />
    <path
       id="path80"
       d="m 164.426,98.844 c 0,3.316 -4.977,3.316 -4.977,0 0,-3.321 4.977,-3.321 4.977,0"
       style="fill:#000000;fill-opacity:1;fill-rule:nonzero;stroke:#000000;stroke-width:0.708661;stroke-linecap:round;stroke-linejoin:round;stroke-miterlimit:10;stroke-dasharray:none;stroke-opacity:1"
       transform="scale(1.3333333)"
       clip-path="url(#clipPath81)" />
    <path
       id="path82"
       d="m 212.047,95.344 c 0,3.316 -4.977,3.316 -4.977,0 0,-3.317 4.977,-3.317 4.977,0"
       style="fill:#000000;fill-opacity:1;fill-rule:nonzero;stroke:#000000;stroke-width:0.708661;stroke-linecap:round;stroke-linejoin:round;stroke-miterlimit:10;stroke-dasharray:none;stroke-opacity:1"
       transform="scale(1.3333333)"
       clip-path="url(#clipPath83)" />
    <path
       id="path84"
       d="m 217.43,90.828 c 0,3.317 -4.977,3.317 -4.977,0 0,-3.316 4.977,-3.316 4.977,0"
       style="fill:#ee82ee;fill-opacity:1;fill-rule:nonzero;stroke:#ee82ee;stroke-width:0.708661;stroke-linecap:round;stroke-linejoin:round;stroke-miterlimit:10;stroke-dasharray:none;stroke-opacity:1"
       transform="scale(1.3333333)"
       clip-path="url(#clipPath85)" />
    <path
       id="path86"
       d="m 119.57,101.285 c 0,3.317 -4.976,3.317 -4.976,0 0,-3.316 4.976,-3.316 4.976,0"
       style="fill:#000000;fill-opacity:1;fill-rule:nonzero;stroke:#000000;stroke-width:0.708661;stroke-linecap:round;stroke-linejoin:round;stroke-miterlimit:10;stroke-dasharray:none;stroke-opacity:1"
       transform="scale(1.3333333)"
       clip-path="url(#clipPath87)" />
    <path
       id="path88"
       d="m 218.398,91.406 c 0,3.317 -4.976,3.317 -4.976,0 0,-3.316 4.976,-3.316 4.976,0"
       style="fill:#000000;fill-opacity:1;fill-rule:nonzero;stroke:#000000;stroke-width:0.708661;stroke-linecap:round;stroke-linejoin:round;stroke-miterlimit:10;stroke-dasharray:none;stroke-opacity:1"
       transform="scale(1.3333333)"
       clip-path="url(#clipPath89)" />
    <path
       id="path90"
       d="m 219.133,91.91 c 0,3.317 -4.977,3.317 -4.977,0 0,-3.316 4.977,-3.316 4.977,0"
       style="fill:#000000;fill-opacity:1;fill-rule:nonzero;stroke:#000000;stroke-width:0.708661;stroke-linecap:round;stroke-linejoin:round;stroke-miterlimit:10;stroke-dasharray:none;stroke-opacity:1"
       transform="scale(1.3333333)"
       clip-path="url(#clipPath91)" />
    <path
       id="path92"
       d="m 169.801,98.41 c 0,3.317 -4.977,3.317 -4.977,0 0,-3.316 4.977,-3.316 4.977,0"
       style="fill:#000000;fill-opacity:1;fill-rule:nonzero;stroke:#000000;stroke-width:0.708661;stroke-linecap:round;stroke-linejoin:round;stroke-miterlimit:10;stroke-dasharray:none;stroke-opacity:1"
       transform="scale(1.3333333)"
       clip-path="url(#clipPath93)" />
    <path
       id="path94"
       d="m 191.93,105.031 c 0,3.317 -4.977,3.317 -4.977,0 0,-3.316 4.977,-3.316 4.977,0"
       style="fill:#000000;fill-opacity:1;fill-rule:nonzero;stroke:#000000;stroke-width:0.708661;stroke-linecap:round;stroke-linejoin:round;stroke-miterlimit:10;stroke-dasharray:none;stroke-opacity:1"
       transform="scale(1.3333333)"
       clip-path="url(#clipPath95)" />
    <path
       id="path96"
       d="m 218.922,88.035 c 0,3.317 -4.977,3.317 -4.977,0 0,-3.32 4.977,-3.32 4.977,0"
       style="fill:#ee82ee;fill-opacity:1;fill-rule:nonzero;stroke:#ee82ee;stroke-width:0.708661;stroke-linecap:round;stroke-linejoin:round;stroke-miterlimit:10;stroke-dasharray:none;stroke-opacity:1"
       transform="scale(1.3333333)"
       clip-path="url(#clipPath97)" />
    <path
       id="path98"
       d="m 218.383,96.16 c 0,3.317 -4.977,3.317 -4.977,0 0,-3.32 4.977,-3.32 4.977,0"
       style="fill:#000000;fill-opacity:1;fill-rule:nonzero;stroke:#000000;stroke-width:0.708661;stroke-linecap:round;stroke-linejoin:round;stroke-miterlimit:10;stroke-dasharray:none;stroke-opacity:1"
       transform="scale(1.3333333)"
       clip-path="url(#clipPath99)" />
    <path
       id="path100"
       d="m 218.062,90.633 c 0,3.32 -4.976,3.32 -4.976,0 0,-3.317 4.976,-3.317 4.976,0"
       style="fill:#ee82ee;fill-opacity:1;fill-rule:nonzero;stroke:#ee82ee;stroke-width:0.708661;stroke-linecap:round;stroke-linejoin:round;stroke-miterlimit:10;stroke-dasharray:none;stroke-opacity:1"
       transform="scale(1.3333333)"
       clip-path="url(#clipPath101)" />
    <path
       id="path102"
       d="m 219.453,91.047 c 0,3.316 -4.976,3.316 -4.976,0 0,-3.32 4.976,-3.32 4.976,0"
       style="fill:#ee82ee;fill-opacity:1;fill-rule:nonzero;stroke:#ee82ee;stroke-width:0.708661;stroke-linecap:round;stroke-linejoin:round;stroke-miterlimit:10;stroke-dasharray:none;stroke-opacity:1"
       transform="scale(1.3333333)"
       clip-path="url(#clipPath103)" />
    <path
       id="path104"
       d="m 200.141,105.703 c 0,3.32 -4.977,3.32 -4.977,0 0,-3.316 4.977,-3.316 4.977,0"
       style="fill:#000000;fill-opacity:1;fill-rule:nonzero;stroke:#000000;stroke-width:0.708661;stroke-linecap:round;stroke-linejoin:round;stroke-miterlimit:10;stroke-dasharray:none;stroke-opacity:1"
       transform="scale(1.3333333)"
       clip-path="url(#clipPath105)" />
    <path
       id="path106"
       d="M -179.109,487.742 511.203,-202.57"
       style="fill:none;stroke:#000000;stroke-width:1.06698;stroke-linecap:butt;stroke-linejoin:round;stroke-miterlimit:10;stroke-dasharray:none;stroke-opacity:1"
       transform="scale(1.3333333)"
       clip-path="url(#clipPath107)" />
    <path
       id="path108"
       d="M 50.996,91.254 H 281.102"
       style="fill:none;stroke:#000000;stroke-width:0.213396;stroke-linecap:butt;stroke-linejoin:round;stroke-miterlimit:10;stroke-dasharray:none;stroke-opacity:1"
       transform="scale(1.3333333)"
       clip-path="url(#clipPath109)" />
    <path
       id="path110"
       d="M 217.379,257.637 V 27.531"
       style="fill:none;stroke:#000000;stroke-width:0.21375;stroke-linecap:butt;stroke-linejoin:round;stroke-miterlimit:10;stroke-dasharray:none;stroke-opacity:1"
       transform="scale(1.3333333)"
       clip-path="url(#clipPath111)" />
    <path
       id="path112"
       d="m 61.457,108.109 2.645,-0.32 2.648,-0.316 15.891,-1.922 2.644,-0.321 5.297,-0.64 2.648,-0.317 7.946,-0.961 2.644,-0.32 15.891,-1.922 2.648,-0.316 2.645,-0.32 15.891,-1.922 2.644,-0.321 5.297,-0.64 2.648,-0.317 10.594,-1.281 2.645,-0.32 10.593,-1.281 2.649,-0.317 2.648,-0.32 2.645,-0.32 18.539,-2.243 2.644,-0.32 2.649,-0.316 13.242,-1.602 2.645,-0.32 7.945,-0.961 2.648,-0.317 7.946,-0.961 2.644,-0.32 15.891,-1.922 2.644,-0.316 7.946,-0.961"
       style="fill:none;stroke:#3366ff;stroke-width:2.13396;stroke-linecap:butt;stroke-linejoin:round;stroke-miterlimit:10;stroke-dasharray:none;stroke-opacity:1"
       transform="scale(1.3333333)" />
    <path
       id="path113"
       d="m 211.973,86.371 3.351,5.805 h -6.703 z"
       style="fill:#ff0000;fill-opacity:1;fill-rule:nonzero;stroke:none"
       transform="scale(1.3333333)" />
    <text
       id="text120"
       xml:space="preserve"
       transform="matrix(1.3333333,0,0,1.3333333,126.96875,102.43359)"><tspan
         id="tspan120"
         style="font-variant:normal;font-weight:normal;font-size:11.0391px;font-family:'DejaVu Sans';writing-mode:lr-tb;fill:#000000;fill-opacity:1;fill-rule:nonzero;stroke:none"
         x="0"
         y="0"> </tspan></text>
    <path
       id="path123"
       d="M 50.996,27.531 H 281.101 V 257.636 H 50.996 Z"
       style="fill:none;stroke:#000000;stroke-width:1.16398;stroke-linecap:round;stroke-linejoin:round;stroke-miterlimit:10;stroke-dasharray:none;stroke-opacity:1"
       transform="scale(1.3333333)"
       clip-path="url(#clipPath124)" />
    <path
       id="path665"
       d="M 50.996,257.637 H 281.102"
       style="fill:none;stroke:#000000;stroke-width:1.06698;stroke-linecap:butt;stroke-linejoin:round;stroke-miterlimit:10;stroke-dasharray:none;stroke-opacity:1"
       transform="scale(1.3333333)" />
    <path
       id="path666"
       d="m 91.848,260.625 v -2.988"
       style="fill:none;stroke:#000000;stroke-width:1.16398;stroke-linecap:butt;stroke-linejoin:round;stroke-miterlimit:10;stroke-dasharray:none;stroke-opacity:1"
       transform="scale(1.3333333)" />
    <path
       id="path667"
       d="m 154.613,260.625 v -2.988"
       style="fill:none;stroke:#000000;stroke-width:1.16398;stroke-linecap:butt;stroke-linejoin:round;stroke-miterlimit:10;stroke-dasharray:none;stroke-opacity:1"
       transform="scale(1.3333333)" />
    <path
       id="path668"
       d="m 217.379,260.625 v -2.988"
       style="fill:none;stroke:#000000;stroke-width:1.16398;stroke-linecap:butt;stroke-linejoin:round;stroke-miterlimit:10;stroke-dasharray:none;stroke-opacity:1"
       transform="scale(1.3333333)" />
    <path
       id="path669"
       d="m 280.148,260.625 v -2.988"
       style="fill:none;stroke:#000000;stroke-width:1.16398;stroke-linecap:butt;stroke-linejoin:round;stroke-miterlimit:10;stroke-dasharray:none;stroke-opacity:1"
       transform="scale(1.3333333)" />
    <path
       id="path670"
       d="m 0.54003931,-2.7197263 v -0.9375 H 3.4697268 v 0.9375 z M 4.9111331,-9.763125e-4 V -0.90332006 h 2.109375 V -7.2548826 l -1.8632813,1.3359375 v -0.9960937 l 1.9453125,-1.3476563 h 0.9726563 v 7.35937504 H 10.090821 V -9.763125e-4 Z M 16.878906,-4.1376951 c 0,0.796875 -0.0791,1.4648438 -0.234375,2.0039063 -0.149414,0.5390625 -0.351562,0.9785156 -0.609375,1.31249999 -0.257812,0.33691406 -0.5625,0.58007812 -0.914062,0.7265625 -0.351563,0.13769531 -0.726563,0.2109375 -1.125,0.2109375 -0.407227,0 -0.785156,-0.07324219 -1.136719,-0.2109375 -0.345703,-0.14648438 -0.644531,-0.38671875 -0.902344,-0.71484375 -0.251953,-0.33398434 -0.451171,-0.77343754 -0.597656,-1.31250004 -0.149414,-0.5449218 -0.222656,-1.21875 -0.222656,-2.015625 0,-0.8261718 0.07324,-1.5146484 0.222656,-2.0625 0.146485,-0.5449218 0.351563,-0.9785156 0.609375,-1.3007812 0.257813,-0.328125 0.5625,-0.5537109 0.914063,-0.6796875 0.351562,-0.1318359 0.732422,-0.1992188 1.148437,-0.1992188 0.389649,0 0.75586,0.067383 1.101563,0.1992188 0.351562,0.1259766 0.65625,0.3515625 0.914062,0.6796875 0.257813,0.3222656 0.459961,0.7558594 0.609375,1.3007812 0.146485,0.5478516 0.222656,1.2363282 0.222656,2.0625 z m -1.078125,0 c 0,-0.65625 -0.04101,-1.1982421 -0.117187,-1.6289062 -0.0791,-0.4365234 -0.196289,-0.7851563 -0.351563,-1.0429688 -0.149414,-0.2636718 -0.333984,-0.4482421 -0.550781,-0.5507812 -0.219726,-0.1083984 -0.46875,-0.1640625 -0.75,-0.1640625 -0.298828,0 -0.55957,0.055664 -0.785156,0.1640625 -0.228516,0.1113281 -0.418945,0.2929687 -0.574219,0.5507812 -0.158203,0.2578125 -0.27539,0.6064454 -0.351562,1.0429688 -0.0791,0.4394531 -0.117188,0.9814453 -0.117188,1.6289062 0,0.6328125 0.03809,1.1689454 0.117188,1.6054688 0.08496,0.4306641 0.202148,0.7792969 0.351562,1.0429687 0.155274,0.2666016 0.342774,0.4570313 0.5625,0.57421879 0.225586,0.11132812 0.483399,0.1640625 0.773438,0.1640625 0.272461,0 0.518554,-0.0527344 0.738281,-0.1640625 0.225586,-0.11718749 0.416016,-0.30761719 0.574219,-0.57421879 0.155273,-0.2636718 0.272461,-0.6123046 0.351562,-1.0429687 0.08496,-0.4365234 0.128906,-0.9726563 0.128906,-1.6054688 z m 51.00293,1.4179688 v -0.9375 h 2.929688 v 0.9375 z m 9.632813,0.023437 c 0,0.4160156 -0.06445,0.7939453 -0.1875,1.1367187 -0.125977,0.3457032 -0.313477,0.6416016 -0.5625,0.89062504 -0.243164,0.25195312 -0.547852,0.4453125 -0.914063,0.5859375 -0.36914,0.13183594 -0.791015,0.19921875 -1.265625,0.19921875 -0.439453,0 -0.817383,-0.05273438 -1.136719,-0.15234375 -0.322265,-0.09960938 -0.594726,-0.24023438 -0.820312,-0.421875 -0.219727,-0.17871094 -0.395508,-0.38671875 -0.527344,-0.62109374 -0.134765,-0.2402344 -0.228515,-0.4980469 -0.28125,-0.7734375 l 1.066406,-0.1171875 c 0.04687,0.1582031 0.108399,0.3105469 0.1875,0.4570312 0.07617,0.140625 0.181641,0.2695313 0.316407,0.3867188 0.131836,0.1171875 0.295898,0.21093749 0.492187,0.28124999 0.202149,0.0644531 0.445313,0.09375 0.726563,0.09375 0.272461,0 0.518554,-0.0380859 0.738281,-0.1171875 0.225586,-0.0849609 0.416016,-0.21093749 0.574219,-0.37499999 0.155273,-0.1640625 0.27539,-0.3632813 0.363281,-0.5976563 0.08496,-0.2402343 0.128906,-0.5185546 0.128906,-0.8320312 0,-0.2490234 -0.04395,-0.4804688 -0.128906,-0.6914063 -0.0791,-0.2167968 -0.196289,-0.4013671 -0.351563,-0.5507812 -0.149414,-0.1552734 -0.333984,-0.2753906 -0.550781,-0.3632813 -0.219726,-0.084961 -0.46875,-0.1289062 -0.75,-0.1289062 -0.18164,0 -0.345703,0.017578 -0.492187,0.046875 -0.149414,0.032227 -0.28711,0.076172 -0.410157,0.1289062 -0.125976,0.055664 -0.243164,0.1171875 -0.351562,0.1875 -0.102539,0.070312 -0.196289,0.1464844 -0.28125,0.2226563 h -1.03125 l 0.269531,-4.4414063 h 4.699219 v 0.9023438 h -3.738281 l -0.152344,2.6132812 c 0.1875,-0.140625 0.421875,-0.2607421 0.703125,-0.3632812 0.28125,-0.1083984 0.612305,-0.1640625 0.996094,-0.1640625 0.413086,0 0.785156,0.064453 1.113281,0.1875 0.328125,0.1259766 0.603516,0.3046875 0.832031,0.5390625 0.234375,0.2285156 0.413086,0.5009766 0.539063,0.8203125 0.123047,0.3134766 0.1875,0.65625 0.1875,1.03125 z m 60.802736,-1.4414063 c 0,0.796875 -0.0791,1.4648438 -0.23438,2.0039063 -0.14941,0.5390625 -0.35156,0.9785156 -0.60937,1.31249999 -0.25781,0.33691406 -0.5625,0.58007812 -0.91406,0.7265625 -0.35157,0.13769531 -0.72657,0.2109375 -1.125,0.2109375 -0.40723,0 -0.78516,-0.07324219 -1.13672,-0.2109375 -0.34571,-0.14648438 -0.64453,-0.38671875 -0.90235,-0.71484375 -0.25195,-0.33398434 -0.45117,-0.77343754 -0.59765,-1.31250004 -0.14942,-0.5449218 -0.22266,-1.21875 -0.22266,-2.015625 0,-0.8261718 0.0732,-1.5146484 0.22266,-2.0625 0.14648,-0.5449218 0.35156,-0.9785156 0.60937,-1.3007812 0.25781,-0.328125 0.5625,-0.5537109 0.91406,-0.6796875 0.35157,-0.1318359 0.73243,-0.1992188 1.14844,-0.1992188 0.38965,0 0.75586,0.067383 1.10156,0.1992188 0.35157,0.1259766 0.65625,0.3515625 0.91407,0.6796875 0.25781,0.3222656 0.45996,0.7558594 0.60937,1.3007812 0.14649,0.5478516 0.22266,1.2363282 0.22266,2.0625 z m -1.07813,0 c 0,-0.65625 -0.041,-1.1982421 -0.11718,-1.6289062 -0.0791,-0.4365234 -0.19629,-0.7851563 -0.35157,-1.0429688 -0.14941,-0.2636718 -0.33398,-0.4482421 -0.55078,-0.5507812 -0.21972,-0.1083984 -0.46875,-0.1640625 -0.75,-0.1640625 -0.29883,0 -0.55957,0.055664 -0.78515,0.1640625 -0.22852,0.1113281 -0.41895,0.2929687 -0.57422,0.5507812 -0.15821,0.2578125 -0.27539,0.6064454 -0.35157,1.0429688 -0.0791,0.4394531 -0.11718,0.9814453 -0.11718,1.6289062 0,0.6328125 0.0381,1.1689454 0.11718,1.6054688 0.085,0.4306641 0.20215,0.7792969 0.35157,1.0429687 0.15527,0.2666016 0.34277,0.4570313 0.5625,0.57421879 0.22558,0.11132812 0.4834,0.1640625 0.77343,0.1640625 0.27247,0 0.51856,-0.0527344 0.73829,-0.1640625 0.22558,-0.11718749 0.41601,-0.30761719 0.57421,-0.57421879 0.15528,-0.2636718 0.27247,-0.6123046 0.35157,-1.0429687 0.085,-0.4365234 0.1289,-0.9726563 0.1289,-1.6054688 z m 63.81446,1.4414063 c 0,0.4160156 -0.0645,0.7939453 -0.1875,1.1367187 -0.12598,0.3457032 -0.31348,0.6416016 -0.5625,0.89062504 -0.24317,0.25195312 -0.54786,0.4453125 -0.91407,0.5859375 -0.36914,0.13183594 -0.79101,0.19921875 -1.26562,0.19921875 -0.43945,0 -0.81738,-0.05273438 -1.13672,-0.15234375 -0.32227,-0.09960938 -0.59473,-0.24023438 -0.82031,-0.421875 -0.21973,-0.17871094 -0.39551,-0.38671875 -0.52735,-0.62109374 -0.13476,-0.2402344 -0.22851,-0.4980469 -0.28125,-0.7734375 l 1.06641,-0.1171875 c 0.0469,0.1582031 0.1084,0.3105469 0.1875,0.4570312 0.0762,0.140625 0.18164,0.2695313 0.31641,0.3867188 0.13183,0.1171875 0.29589,0.21093749 0.49218,0.28124999 0.20215,0.0644531 0.44532,0.09375 0.72657,0.09375 0.27246,0 0.51855,-0.0380859 0.73828,-0.1171875 0.22558,-0.0849609 0.41601,-0.21093749 0.57422,-0.37499999 0.15527,-0.1640625 0.27539,-0.3632813 0.36328,-0.5976563 0.085,-0.2402343 0.1289,-0.5185546 0.1289,-0.8320312 0,-0.2490234 -0.0439,-0.4804688 -0.1289,-0.6914063 -0.0791,-0.2167968 -0.19629,-0.4013671 -0.35157,-0.5507812 -0.14941,-0.1552734 -0.33398,-0.2753906 -0.55078,-0.3632813 -0.21972,-0.084961 -0.46875,-0.1289062 -0.75,-0.1289062 -0.18164,0 -0.3457,0.017578 -0.49218,0.046875 -0.14942,0.032227 -0.28711,0.076172 -0.41016,0.1289062 -0.12598,0.055664 -0.24316,0.1171875 -0.35156,0.1875 -0.10254,0.070312 -0.19629,0.1464844 -0.28125,0.2226563 h -1.03125 l 0.26953,-4.4414063 h 4.69922 v 0.9023438 h -3.73828 l -0.15235,2.6132812 c 0.1875,-0.140625 0.42188,-0.2607421 0.70313,-0.3632812 0.28125,-0.1083984 0.6123,-0.1640625 0.99609,-0.1640625 0.41309,0 0.78516,0.064453 1.11328,0.1875 0.32813,0.1259766 0.60352,0.3046875 0.83203,0.5390625 0.23438,0.2285156 0.41309,0.5009766 0.53907,0.8203125 0.12304,0.3134766 0.1875,0.65625 0.1875,1.03125 z m 0,0"
       style="fill:#000000;fill-opacity:1;fill-rule:nonzero;stroke:none"
       aria-label="-10-505"
       transform="matrix(1.3333333,0,0,1.3333333,110.46354,362.50521)" />
    <path
       id="path702"
       d="M 50.996,257.637 V 27.531"
       style="fill:none;stroke:#000000;stroke-width:1.06698;stroke-linecap:butt;stroke-linejoin:round;stroke-miterlimit:10;stroke-dasharray:none;stroke-opacity:1"
       transform="scale(1.3333333)" />
    <path
       id="path703"
       d="m 0.54003856,-2.7197271 v -0.9375 H 3.4697261 v 0.9375 z M 4.9111323,-9.770625e-4 V -0.90332081 h 2.109375 V -7.2548833 l -1.8632812,1.3359375 v -0.9960938 l 1.9453125,-1.3476562 h 0.9726562 v 7.35937499 H 10.09082 V -9.770625e-4 Z M 16.878906,-4.1376958 c 0,0.796875 -0.0791,1.4648437 -0.234375,2.0039062 -0.149414,0.5390625 -0.351563,0.9785157 -0.609375,1.31250004 -0.257813,0.33691406 -0.5625,0.58007812 -0.914063,0.7265625 -0.351562,0.13769531 -0.726562,0.2109375 -1.125,0.2109375 -0.407226,0 -0.785156,-0.07324219 -1.136719,-0.2109375 -0.345703,-0.14648438 -0.644531,-0.38671875 -0.902343,-0.71484375 -0.251953,-0.33398439 -0.451172,-0.77343749 -0.597657,-1.31249999 -0.149414,-0.5449219 -0.222656,-1.21875 -0.222656,-2.015625 0,-0.8261719 0.07324,-1.5146485 0.222656,-2.0625 0.146485,-0.5449219 0.351563,-0.9785156 0.609375,-1.3007813 0.257813,-0.328125 0.5625,-0.5537109 0.914063,-0.6796875 0.351562,-0.1318359 0.732422,-0.1992187 1.148437,-0.1992187 0.389649,0 0.75586,0.067383 1.101563,0.1992187 0.351562,0.1259766 0.65625,0.3515625 0.914062,0.6796875 0.257813,0.3222657 0.459961,0.7558594 0.609375,1.3007813 0.146485,0.5478515 0.222657,1.2363281 0.222657,2.0625 z m -1.078125,0 c 0,-0.65625 -0.04102,-1.1982422 -0.117188,-1.6289063 -0.0791,-0.4365234 -0.196289,-0.7851562 -0.351562,-1.0429687 -0.149414,-0.2636719 -0.333985,-0.4482422 -0.550782,-0.5507813 -0.219726,-0.1083984 -0.46875,-0.1640625 -0.75,-0.1640625 -0.298828,0 -0.55957,0.055664 -0.785156,0.1640625 -0.228515,0.1113282 -0.418945,0.2929688 -0.574219,0.5507813 -0.158203,0.2578125 -0.27539,0.6064453 -0.351562,1.0429687 -0.0791,0.4394532 -0.117188,0.9814453 -0.117188,1.6289063 0,0.6328125 0.03809,1.1689453 0.117188,1.6054687 0.08496,0.4306641 0.202148,0.7792969 0.351562,1.0429688 0.155274,0.2666015 0.342774,0.4570312 0.5625,0.57421874 0.225586,0.11132812 0.483399,0.1640625 0.773438,0.1640625 0.272461,0 0.518555,-0.0527344 0.738281,-0.1640625 0.225586,-0.11718754 0.416016,-0.30761724 0.574219,-0.57421874 0.155273,-0.2636719 0.272461,-0.6123047 0.351562,-1.0429688 0.08496,-0.4365234 0.128907,-0.9726562 0.128907,-1.6054687 z M 7.539062,-65.485352 v -0.9375 h 2.929687 v 0.9375 z m 9.632812,0.02344 c 0,0.416016 -0.06445,0.793946 -0.1875,1.136719 -0.125976,0.345703 -0.313476,0.641602 -0.5625,0.890625 -0.243164,0.251953 -0.547851,0.445313 -0.914062,0.585938 -0.369141,0.131836 -0.791016,0.199218 -1.265625,0.199218 -0.439453,0 -0.817383,-0.05273 -1.136719,-0.152343 -0.322265,-0.09961 -0.594726,-0.240235 -0.820312,-0.421875 -0.219727,-0.178711 -0.395508,-0.386719 -0.527344,-0.621094 -0.134766,-0.240234 -0.228516,-0.498047 -0.28125,-0.773438 l 1.066406,-0.117187 c 0.04687,0.158203 0.108399,0.310547 0.1875,0.457031 0.07617,0.140625 0.181641,0.269531 0.316406,0.386719 0.131836,0.117187 0.295899,0.210937 0.492188,0.28125 0.202148,0.06445 0.445312,0.09375 0.726562,0.09375 0.272461,0 0.518555,-0.03809 0.738282,-0.117188 0.225586,-0.08496 0.416015,-0.210937 0.574218,-0.375 0.155274,-0.164062 0.275391,-0.363281 0.363282,-0.597656 0.08496,-0.240234 0.128906,-0.518555 0.128906,-0.832031 0,-0.249024 -0.04395,-0.480469 -0.128906,-0.691406 -0.0791,-0.216797 -0.196289,-0.401368 -0.351563,-0.550782 -0.149414,-0.155273 -0.333984,-0.27539 -0.550781,-0.363281 -0.219727,-0.08496 -0.46875,-0.128906 -0.75,-0.128906 -0.181641,0 -0.345703,0.01758 -0.492188,0.04687 -0.149414,0.03223 -0.287109,0.07617 -0.410156,0.128906 -0.125976,0.05566 -0.243164,0.117188 -0.351562,0.1875 -0.102539,0.07031 -0.196289,0.146485 -0.28125,0.222656 h -1.03125 l 0.269531,-4.441406 h 4.699219 v 0.902344 h -3.738282 l -0.152343,2.613281 c 0.1875,-0.140625 0.421875,-0.260742 0.703125,-0.363281 0.28125,-0.108399 0.612304,-0.164063 0.996093,-0.164063 0.413086,0 0.785157,0.06445 1.113282,0.1875 0.328125,0.125977 0.603515,0.304688 0.832031,0.539063 0.234375,0.228516 0.413086,0.500976 0.539062,0.820312 0.123047,0.313477 0.1875,0.65625 0.1875,1.03125 z m 0.03809,-64.207038 c 0,0.79688 -0.0791,1.46485 -0.234375,2.00391 -0.149414,0.53906 -0.351562,0.97852 -0.609375,1.3125 -0.257812,0.33691 -0.5625,0.58008 -0.914062,0.72656 -0.351563,0.1377 -0.726563,0.21094 -1.125,0.21094 -0.407227,0 -0.785156,-0.0732 -1.136719,-0.21094 -0.345703,-0.14648 -0.644531,-0.38672 -0.902344,-0.71484 -0.251953,-0.33399 -0.451171,-0.77344 -0.597656,-1.3125 -0.149414,-0.54492 -0.222656,-1.21875 -0.222656,-2.01563 0,-0.82617 0.07324,-1.51464 0.222656,-2.0625 0.146485,-0.54492 0.351563,-0.97851 0.609375,-1.30078 0.257813,-0.32812 0.5625,-0.55371 0.914063,-0.67968 0.351562,-0.13184 0.732422,-0.19922 1.148437,-0.19922 0.389649,0 0.75586,0.0674 1.101563,0.19922 0.351562,0.12597 0.65625,0.35156 0.914062,0.67968 0.257813,0.32227 0.459961,0.75586 0.609375,1.30078 0.146485,0.54786 0.222656,1.23633 0.222656,2.0625 z m -1.078125,0 c 0,-0.65625 -0.04101,-1.19824 -0.117187,-1.6289 -0.0791,-0.43653 -0.196289,-0.78516 -0.351563,-1.04297 -0.149414,-0.26367 -0.333984,-0.44824 -0.550781,-0.55078 -0.219726,-0.1084 -0.46875,-0.16406 -0.75,-0.16406 -0.298828,0 -0.55957,0.0557 -0.785156,0.16406 -0.228516,0.11133 -0.418945,0.29297 -0.574219,0.55078 -0.158203,0.25781 -0.27539,0.60644 -0.351562,1.04297 -0.0791,0.43945 -0.117188,0.98144 -0.117188,1.6289 0,0.63282 0.03809,1.16895 0.117188,1.60547 0.08496,0.43067 0.202148,0.7793 0.351562,1.04297 0.155274,0.2666 0.342774,0.45703 0.5625,0.57422 0.225586,0.11133 0.483399,0.16406 0.773438,0.16406 0.272461,0 0.518554,-0.0527 0.738281,-0.16406 0.225586,-0.11719 0.416016,-0.30762 0.574219,-0.57422 0.155273,-0.26367 0.272461,-0.6123 0.351562,-1.04297 0.08496,-0.43652 0.128906,-0.97265 0.128906,-1.60547 z m 1.042969,-61.32421 c 0,0.41601 -0.06445,0.79394 -0.1875,1.13671 -0.125976,0.34571 -0.313476,0.64161 -0.5625,0.89063 -0.243164,0.25195 -0.547851,0.44531 -0.914062,0.58594 -0.369141,0.13183 -0.791016,0.19922 -1.265625,0.19922 -0.439453,0 -0.817383,-0.0527 -1.136719,-0.15235 -0.322266,-0.0996 -0.594727,-0.24023 -0.820313,-0.42187 -0.219726,-0.17871 -0.395507,-0.38672 -0.527343,-0.6211 -0.134766,-0.24023 -0.228516,-0.49804 -0.28125,-0.77343 l 1.066406,-0.11719 c 0.04687,0.1582 0.108398,0.31054 0.1875,0.45703 0.07617,0.14062 0.181641,0.26953 0.316406,0.38672 0.131836,0.11719 0.295899,0.21094 0.492188,0.28125 0.202148,0.0645 0.445312,0.0937 0.726562,0.0937 0.272461,0 0.518555,-0.0381 0.738281,-0.11719 0.225586,-0.085 0.416016,-0.21094 0.574219,-0.375 0.155274,-0.16406 0.275391,-0.36328 0.363281,-0.59766 0.08496,-0.24023 0.128907,-0.51855 0.128907,-0.83203 0,-0.24902 -0.04395,-0.48047 -0.128907,-0.6914 -0.0791,-0.2168 -0.196289,-0.40137 -0.351562,-0.55078 -0.149414,-0.15528 -0.333984,-0.2754 -0.550781,-0.36329 -0.219727,-0.085 -0.46875,-0.1289 -0.75,-0.1289 -0.181641,0 -0.345703,0.0176 -0.492188,0.0469 -0.149414,0.0322 -0.287109,0.0762 -0.410156,0.12891 -0.125977,0.0557 -0.243164,0.11719 -0.351563,0.1875 -0.102539,0.0703 -0.196289,0.14648 -0.28125,0.22266 h -1.03125 l 0.269532,-4.44141 h 4.699218 v 0.90234 h -3.738281 l -0.152344,2.61328 c 0.1875,-0.14062 0.421875,-0.26074 0.703125,-0.36328 0.28125,-0.1084 0.612305,-0.16406 0.996094,-0.16406 0.413086,0 0.785156,0.0644 1.113281,0.1875 0.328125,0.12598 0.603516,0.30469 0.832032,0.53906 0.234375,0.22852 0.413086,0.50098 0.539062,0.82032 0.123047,0.31347 0.1875,0.65625 0.1875,1.03125 z m 0,0"
       style="fill:#000000;fill-opacity:1;fill-rule:nonzero;stroke:none"
       aria-label="-10&#10;-5&#10;0&#10;5"
       transform="matrix(1.3333333,0,0,1.3333333,36.822917,294.86458)" />
    <path
       id="path704"
       d="m 48.008,216.785 h 2.988"
       style="fill:none;stroke:#000000;stroke-width:1.16398;stroke-linecap:butt;stroke-linejoin:round;stroke-miterlimit:10;stroke-dasharray:none;stroke-opacity:1"
       transform="scale(1.3333333)" />
    <path
       id="path705"
       d="m 48.008,154.02 h 2.988"
       style="fill:none;stroke:#000000;stroke-width:1.16398;stroke-linecap:butt;stroke-linejoin:round;stroke-miterlimit:10;stroke-dasharray:none;stroke-opacity:1"
       transform="scale(1.3333333)" />
    <path
       id="path706"
       d="m 48.008,91.254 h 2.988"
       style="fill:none;stroke:#000000;stroke-width:1.16398;stroke-linecap:butt;stroke-linejoin:round;stroke-miterlimit:10;stroke-dasharray:none;stroke-opacity:1"
       transform="scale(1.3333333)" />
    <path
       id="path707"
       d="m 48.008,28.488 h 2.988"
       style="fill:none;stroke:#000000;stroke-width:1.16398;stroke-linecap:butt;stroke-linejoin:round;stroke-miterlimit:10;stroke-dasharray:none;stroke-opacity:1"
       transform="scale(1.3333333)" />
    <text
       xml:space="preserve"
       style="font-style:normal;font-variant:normal;font-weight:normal;font-stretch:normal;font-size:16px;font-family:Helvetica;-inkscape-font-specification:Helvetica;text-align:start;letter-spacing:0.04px;writing-mode:lr-tb;direction:ltr;text-orientation:sideways;text-anchor:start;white-space:pre;inline-size:240.499;display:inline;fill:#000000;stroke-width:0.285"
       x="9.2155476"
       y="237.5"
       id="text1"
       transform="rotate(-90,51.04724,262.70614)"><tspan
         x="9.2155476"
         y="237.5"
         id="tspan3">Supply-side welfare (% of GDP)</tspan></text>
    <text
       xml:space="preserve"
       style="font-style:normal;font-variant:normal;font-weight:normal;font-stretch:normal;font-size:16px;font-family:Helvetica;-inkscape-font-specification:Helvetica;text-align:start;letter-spacing:0.04px;writing-mode:lr-tb;direction:ltr;text-orientation:sideways;text-anchor:start;fill:#000000;stroke-width:0.285"
       x="93.306458"
       y="382.95453"
       id="text2"><tspan
         id="tspan2"
         x="93.306458"
         y="382.95453">Market equilibrium welfare (% of GDP)</tspan></text>
  </g>
</svg>
